%TF.GenerationSoftware,KiCad,Pcbnew,8.0.0*%
%TF.CreationDate,2024-10-30T22:06:19-04:00*%
%TF.ProjectId,mycoil,6d79636f-696c-42e6-9b69-6361645f7063,rev?*%
%TF.SameCoordinates,Original*%
%TF.FileFunction,Profile,NP*%
%FSLAX46Y46*%
G04 Gerber Fmt 4.6, Leading zero omitted, Abs format (unit mm)*
G04 Created by KiCad (PCBNEW 8.0.0) date 2024-10-30 22:06:19*
%MOMM*%
%LPD*%
G01*
G04 APERTURE LIST*
%TA.AperFunction,Profile*%
%ADD10C,0.100000*%
%TD*%
G04 APERTURE END LIST*
D10*
X21547587Y-28033618D02*
X33089359Y-32443680D01*
X33268642Y-32561436D01*
X33382087Y-32743479D01*
X33408815Y-32956304D01*
X33343908Y-33160746D01*
X31392247Y-36541120D01*
X31247650Y-36699552D01*
X31049973Y-36782818D01*
X30835598Y-36775593D01*
X30643976Y-36679208D01*
X21053864Y-28888771D01*
X20877426Y-28591422D01*
X20936110Y-28250684D01*
X21201856Y-28029492D01*
X21547587Y-28033618D01*
X43151096Y-30406327D02*
G75*
G02*
X47098239Y-424799I-58151095J22906326D01*
G01*
X-2000000Y-7500000D02*
G75*
G02*
X-28000000Y-7500000I-13000000J0D01*
G01*
X-28000000Y-7500000D02*
G75*
G02*
X-2000000Y-7500000I13000000J0D01*
G01*
X39335164Y-5066955D02*
X39524431Y-5167886D01*
X39653991Y-5338835D01*
X39700000Y-5548340D01*
X39700000Y-9451660D01*
X39653991Y-9661165D01*
X39524431Y-9832114D01*
X39335164Y-9933045D01*
X39121021Y-9945383D01*
X26920523Y-7993723D01*
X26619048Y-7824431D01*
X26499501Y-7500000D01*
X26619048Y-7175569D01*
X26920523Y-7006277D01*
X39121021Y-5054617D01*
X39335164Y-5066955D01*
X37909804Y-19145492D02*
X38113456Y-19212835D01*
X38270151Y-19359312D01*
X38351052Y-19557968D01*
X38341270Y-19772243D01*
X37331016Y-23542561D01*
X37232351Y-23733019D01*
X37062960Y-23864610D01*
X36854019Y-23913116D01*
X36643980Y-23869610D01*
X25364331Y-18826729D01*
X25116945Y-18585178D01*
X25085440Y-18240861D01*
X25284882Y-17958426D01*
X25619900Y-17872930D01*
X37909804Y-19145492D01*
X14991401Y-36793171D02*
X24998488Y-44040194D01*
X25141185Y-44200340D01*
X25203648Y-44405541D01*
X25174382Y-44618033D01*
X25058773Y-44798709D01*
X22298709Y-47558773D01*
X22118033Y-47674382D01*
X21905541Y-47703648D01*
X21700340Y-47641185D01*
X21540194Y-47498488D01*
X14293171Y-37491401D01*
X14199704Y-37158518D01*
X14344579Y-36844579D01*
X14658518Y-36699704D01*
X14991401Y-36793171D01*
X6387838Y-43557376D02*
X14178275Y-53147488D01*
X14274660Y-53339110D01*
X14281885Y-53553485D01*
X14198619Y-53751162D01*
X14040187Y-53895759D01*
X10659813Y-55847420D01*
X10455371Y-55912327D01*
X10242546Y-55885599D01*
X10060503Y-55772154D01*
X9942747Y-55592871D01*
X5532685Y-44051099D01*
X5528559Y-43705368D01*
X5749751Y-43439622D01*
X6090489Y-43380938D01*
X6387838Y-43557376D01*
X-3914822Y-47616945D02*
X-3673271Y-47864331D01*
X1369610Y-59143980D01*
X1413116Y-59354019D01*
X1364610Y-59562960D01*
X1233019Y-59732351D01*
X1042561Y-59831016D01*
X-2727757Y-60841270D01*
X-2942032Y-60851052D01*
X-3140688Y-60770151D01*
X-3287165Y-60613456D01*
X-3354508Y-60409804D01*
X-4627070Y-48119900D01*
X-4541574Y-47784882D01*
X-4259139Y-47585440D01*
X-3914822Y-47616945D01*
X-14675569Y-49119048D02*
X-14506277Y-49420523D01*
X-12554617Y-61621021D01*
X-12566955Y-61835164D01*
X-12667886Y-62024431D01*
X-12838835Y-62153991D01*
X-13048340Y-62200000D01*
X-16951660Y-62200000D01*
X-17161165Y-62153991D01*
X-17332114Y-62024431D01*
X-17433045Y-61835164D01*
X-17445383Y-61621021D01*
X-15493723Y-49420523D01*
X-15324431Y-49119048D01*
X-15000000Y-48999501D01*
X-14675569Y-49119048D01*
X-25458426Y-47784882D02*
X-25372930Y-48119900D01*
X-26645492Y-60409804D01*
X-26712835Y-60613456D01*
X-26859312Y-60770151D01*
X-27057968Y-60851052D01*
X-27272243Y-60841270D01*
X-31042561Y-59831016D01*
X-31233019Y-59732351D01*
X-31364610Y-59562960D01*
X-31413116Y-59354019D01*
X-31369610Y-59143980D01*
X-26326729Y-47864331D01*
X-26085178Y-47616945D01*
X-25740861Y-47585440D01*
X-25458426Y-47784882D01*
X-35749751Y-43439622D02*
X-35528559Y-43705368D01*
X-35532685Y-44051099D01*
X-39942747Y-55592871D01*
X-40060503Y-55772154D01*
X-40242546Y-55885599D01*
X-40455371Y-55912327D01*
X-40659813Y-55847420D01*
X-44040187Y-53895759D01*
X-44198619Y-53751162D01*
X-44281885Y-53553485D01*
X-44274660Y-53339110D01*
X-44178275Y-53147488D01*
X-36387838Y-43557376D01*
X-36090489Y-43380938D01*
X-35749751Y-43439622D01*
X-44344579Y-36844579D02*
X-44199704Y-37158518D01*
X-44293171Y-37491401D01*
X-51540194Y-47498488D01*
X-51700340Y-47641185D01*
X-51905541Y-47703648D01*
X-52118033Y-47674382D01*
X-52298709Y-47558773D01*
X-55058773Y-44798709D01*
X-55174382Y-44618033D01*
X-55203648Y-44405541D01*
X-55141185Y-44200340D01*
X-54998488Y-44040194D01*
X-44991401Y-36793171D01*
X-44658518Y-36699704D01*
X-44344579Y-36844579D01*
X-50939622Y-28249751D02*
X-50880938Y-28590489D01*
X-51057376Y-28887838D01*
X-60647488Y-36678275D01*
X-60839110Y-36774660D01*
X-61053485Y-36781885D01*
X-61251162Y-36698619D01*
X-61395759Y-36540187D01*
X-63347420Y-33159813D01*
X-63412327Y-32955371D01*
X-63385599Y-32742546D01*
X-63272154Y-32560503D01*
X-63092871Y-32442747D01*
X-51551099Y-28032685D01*
X-51205368Y-28028559D01*
X-50939622Y-28249751D01*
X-55284882Y-17958426D02*
X-55085440Y-18240861D01*
X-55116945Y-18585178D01*
X-55364331Y-18826729D01*
X-66643980Y-23869610D01*
X-66854019Y-23913116D01*
X-67062960Y-23864610D01*
X-67232351Y-23733019D01*
X-67331016Y-23542561D01*
X-68341270Y-19772243D01*
X-68351052Y-19557968D01*
X-68270151Y-19359312D01*
X-68113456Y-19212835D01*
X-67909804Y-19145492D01*
X-55619900Y-17872930D01*
X-55284882Y-17958426D01*
X-56920523Y-7006277D02*
X-56619048Y-7175569D01*
X-56499501Y-7500000D01*
X-56619048Y-7824431D01*
X-56920523Y-7993723D01*
X-69121021Y-9945383D01*
X-69335164Y-9933045D01*
X-69524431Y-9832114D01*
X-69653991Y-9661165D01*
X-69700000Y-9451660D01*
X-69700000Y-5548340D01*
X-69653991Y-5338835D01*
X-69524431Y-5167886D01*
X-69335164Y-5066955D01*
X-69121021Y-5054617D01*
X-56920523Y-7006277D01*
X-66643980Y8869610D02*
X-55364331Y3826729D01*
X-55116945Y3585178D01*
X-55085440Y3240861D01*
X-55284882Y2958426D01*
X-55619900Y2872930D01*
X-67909804Y4145492D01*
X-68113456Y4212835D01*
X-68270151Y4359312D01*
X-68351052Y4557968D01*
X-68341270Y4772243D01*
X-67331016Y8542561D01*
X-67232351Y8733019D01*
X-67062960Y8864610D01*
X-66854019Y8913116D01*
X-66643980Y8869610D01*
X-60839110Y21774660D02*
X-60647488Y21678275D01*
X-51057376Y13887838D01*
X-50880938Y13590489D01*
X-50939622Y13249751D01*
X-51205368Y13028559D01*
X-51551099Y13032685D01*
X-63092871Y17442747D01*
X-63272154Y17560503D01*
X-63385599Y17742546D01*
X-63412327Y17955371D01*
X-63347420Y18159813D01*
X-61395759Y21540187D01*
X-61251162Y21698619D01*
X-61053485Y21781885D01*
X-60839110Y21774660D01*
X-51700340Y32641185D02*
X-51540194Y32498488D01*
X-44293171Y22491401D01*
X-44199704Y22158518D01*
X-44344579Y21844579D01*
X-44658518Y21699704D01*
X-44991401Y21793171D01*
X-54998488Y29040194D01*
X-55141185Y29200340D01*
X-55203648Y29405541D01*
X-55174382Y29618033D01*
X-55058773Y29798709D01*
X-52298709Y32558773D01*
X-52118033Y32674382D01*
X-51905541Y32703648D01*
X-51700340Y32641185D01*
X-40242546Y40885599D02*
X-40060503Y40772154D01*
X-39942747Y40592871D01*
X-35532685Y29051099D01*
X-35528559Y28705368D01*
X-35749751Y28439622D01*
X-36090489Y28380938D01*
X-36387838Y28557376D01*
X-44178275Y38147488D01*
X-44274660Y38339110D01*
X-44281885Y38553485D01*
X-44198619Y38751162D01*
X-44040187Y38895759D01*
X-40659813Y40847420D01*
X-40455371Y40912327D01*
X-40242546Y40885599D01*
X-26859312Y45770151D02*
X-26712835Y45613456D01*
X-26645492Y45409804D01*
X-25372930Y33119900D01*
X-25458426Y32784882D01*
X-25740861Y32585440D01*
X-26085178Y32616945D01*
X-26326729Y32864331D01*
X-31369610Y44143980D01*
X-31413116Y44354019D01*
X-31364610Y44562960D01*
X-31233019Y44732351D01*
X-31042561Y44831016D01*
X-27272243Y45841270D01*
X-27057968Y45851052D01*
X-26859312Y45770151D01*
X-12838835Y47153991D02*
X-12667886Y47024431D01*
X-12566955Y46835164D01*
X-12554617Y46621021D01*
X-14506277Y34420523D01*
X-14675569Y34119048D01*
X-15000000Y33999501D01*
X-15324431Y34119048D01*
X-15493723Y34420523D01*
X-17445383Y46621021D01*
X-17433045Y46835164D01*
X-17332114Y47024431D01*
X-17161165Y47153991D01*
X-16951660Y47200000D01*
X-13048340Y47200000D01*
X-12838835Y47153991D01*
X-2727757Y45841270D02*
X1042561Y44831016D01*
X1233019Y44732351D01*
X1364610Y44562960D01*
X1413116Y44354019D01*
X1369610Y44143980D01*
X-3673271Y32864331D01*
X-3914822Y32616945D01*
X-4259139Y32585440D01*
X-4541574Y32784882D01*
X-4627070Y33119900D01*
X-3354508Y45409804D01*
X-3287165Y45613456D01*
X-3140688Y45770151D01*
X-2942032Y45851052D01*
X-2727757Y45841270D01*
X10659813Y40847420D02*
X14040187Y38895759D01*
X14198619Y38751162D01*
X14281885Y38553485D01*
X14274660Y38339110D01*
X14178275Y38147488D01*
X6387838Y28557376D01*
X6090489Y28380938D01*
X5749751Y28439622D01*
X5528559Y28705368D01*
X5532685Y29051099D01*
X9942747Y40592871D01*
X10060503Y40772154D01*
X10242546Y40885599D01*
X10455371Y40912327D01*
X10659813Y40847420D01*
X22118033Y32674382D02*
X22298709Y32558773D01*
X25058773Y29798709D01*
X25174382Y29618033D01*
X25203648Y29405541D01*
X25141185Y29200340D01*
X24998488Y29040194D01*
X14991401Y21793171D01*
X14658518Y21699704D01*
X14344579Y21844579D01*
X14199704Y22158518D01*
X14293171Y22491401D01*
X21540194Y32498488D01*
X21700340Y32641185D01*
X21905541Y32703648D01*
X22118033Y32674382D01*
X31251162Y21698619D02*
X31395759Y21540187D01*
X33347420Y18159813D01*
X33412327Y17955371D01*
X33385599Y17742546D01*
X33272154Y17560503D01*
X33092871Y17442747D01*
X21551099Y13032685D01*
X21205368Y13028559D01*
X20939622Y13249751D01*
X20880938Y13590489D01*
X21057376Y13887838D01*
X30647488Y21678275D01*
X30839110Y21774660D01*
X31053485Y21781885D01*
X31251162Y21698619D01*
X37062960Y8864610D02*
X37232351Y8733019D01*
X37331016Y8542561D01*
X38341270Y4772243D01*
X38351052Y4557968D01*
X38270151Y4359312D01*
X38113456Y4212835D01*
X37909804Y4145492D01*
X25619900Y2872930D01*
X25284882Y2958426D01*
X25085440Y3240861D01*
X25116945Y3585178D01*
X25364331Y3826729D01*
X36643980Y8869610D01*
X36854019Y8913116D01*
X37062960Y8864610D01*
X47098241Y-424799D02*
X59021103Y933639D01*
X59021103Y933639D02*
X59021103Y933639D01*
X59021103Y933639D02*
X59369723Y-3096097D01*
X59369723Y-3096097D02*
X59499124Y-7138815D01*
X59499124Y-7138815D02*
X59408927Y-11182598D01*
X59408927Y-11182598D02*
X59099397Y-15215525D01*
X59099397Y-15215525D02*
X58571446Y-19225710D01*
X58571446Y-19225710D02*
X57826631Y-23201331D01*
X57826631Y-23201331D02*
X56867147Y-27130670D01*
X56867147Y-27130670D02*
X55695822Y-31002144D01*
X55695822Y-31002144D02*
X54316109Y-34804341D01*
X54316109Y-34804341D02*
X54316109Y-34804341D01*
X54316109Y-34804341D02*
X43151098Y-30406327D01*
M02*
