%TF.GenerationSoftware,KiCad,Pcbnew,8.0.0*%
%TF.CreationDate,2024-10-30T22:06:19-04:00*%
%TF.ProjectId,mycoil,6d79636f-696c-42e6-9b69-6361645f7063,rev?*%
%TF.SameCoordinates,Original*%
%TF.FileFunction,Legend,Top*%
%TF.FilePolarity,Positive*%
%FSLAX46Y46*%
G04 Gerber Fmt 4.6, Leading zero omitted, Abs format (unit mm)*
G04 Created by KiCad (PCBNEW 8.0.0) date 2024-10-30 22:06:19*
%MOMM*%
%LPD*%
G01*
G04 APERTURE LIST*
%ADD10C,0.300000*%
%ADD11C,3.800000*%
%ADD12C,3.000000*%
G04 APERTURE END LIST*
D10*
X-67740203Y13511876D02*
X-68796065Y13949229D01*
X-68268134Y13730553D02*
X-67502767Y15578312D01*
X-67502767Y15578312D02*
X-67788082Y15387238D01*
X-67788082Y15387238D02*
X-68036951Y15284153D01*
X-68036951Y15284153D02*
X-68249374Y15269057D01*
X-66343820Y14892090D02*
X-66219385Y14943633D01*
X-66219385Y14943633D02*
X-66006962Y14958729D01*
X-66006962Y14958729D02*
X-65567019Y14776499D01*
X-65567019Y14776499D02*
X-65427488Y14615618D01*
X-65427488Y14615618D02*
X-65375946Y14491184D01*
X-65375946Y14491184D02*
X-65360849Y14278761D01*
X-65360849Y14278761D02*
X-65433741Y14102783D01*
X-65433741Y14102783D02*
X-65631068Y13875264D01*
X-65631068Y13875264D02*
X-67124283Y13256754D01*
X-67124283Y13256754D02*
X-65980432Y12782956D01*
X-63543283Y13938240D02*
X-64423168Y14302700D01*
X-64423168Y14302700D02*
X-64875617Y13459261D01*
X-64875617Y13459261D02*
X-64751183Y13510803D01*
X-64751183Y13510803D02*
X-64538760Y13525900D01*
X-64538760Y13525900D02*
X-64098817Y13343670D01*
X-64098817Y13343670D02*
X-63959286Y13182789D01*
X-63959286Y13182789D02*
X-63907743Y13058355D01*
X-63907743Y13058355D02*
X-63892647Y12845931D01*
X-63892647Y12845931D02*
X-64074877Y12405989D01*
X-64074877Y12405989D02*
X-64235758Y12266458D01*
X-64235758Y12266458D02*
X-64360192Y12214915D01*
X-64360192Y12214915D02*
X-64572615Y12199819D01*
X-64572615Y12199819D02*
X-65012558Y12382049D01*
X-65012558Y12382049D02*
X-65152089Y12542930D01*
X-65152089Y12542930D02*
X-65203632Y12667364D01*
X-62196925Y11215776D02*
X-60718806Y12046708D01*
X-61686680Y12447615D02*
X-61229051Y10814869D01*
X-58149452Y9539257D02*
X-59205314Y9976610D01*
X-58677383Y9757934D02*
X-57912016Y11605693D01*
X-57912016Y11605693D02*
X-58197331Y11414619D01*
X-58197331Y11414619D02*
X-58446200Y11311534D01*
X-58446200Y11311534D02*
X-58658623Y11296438D01*
X-56768165Y11131894D02*
X-55624314Y10658096D01*
X-55624314Y10658096D02*
X-56531802Y10209310D01*
X-56531802Y10209310D02*
X-56267837Y10099971D01*
X-56267837Y10099971D02*
X-56128306Y9939091D01*
X-56128306Y9939091D02*
X-56076763Y9814656D01*
X-56076763Y9814656D02*
X-56061667Y9602233D01*
X-56061667Y9602233D02*
X-56243897Y9162291D01*
X-56243897Y9162291D02*
X-56404778Y9022760D01*
X-56404778Y9022760D02*
X-56529212Y8971217D01*
X-56529212Y8971217D02*
X-56741635Y8956121D01*
X-56741635Y8956121D02*
X-57269566Y9174797D01*
X-57269566Y9174797D02*
X-57409097Y9335677D01*
X-57409097Y9335677D02*
X-57460640Y9460112D01*
X-55597784Y8482322D02*
X-55087540Y9714161D01*
X-55160432Y9538184D02*
X-55035997Y9589727D01*
X-55035997Y9589727D02*
X-54823574Y9604823D01*
X-54823574Y9604823D02*
X-54559609Y9495485D01*
X-54559609Y9495485D02*
X-54420077Y9334605D01*
X-54420077Y9334605D02*
X-54404981Y9122181D01*
X-54404981Y9122181D02*
X-54805887Y8154308D01*
X-54404981Y9122181D02*
X-54244100Y9261712D01*
X-54244100Y9261712D02*
X-54031677Y9276809D01*
X-54031677Y9276809D02*
X-53767712Y9167471D01*
X-53767712Y9167471D02*
X-53628181Y9006590D01*
X-53628181Y9006590D02*
X-53613084Y8794167D01*
X-53613084Y8794167D02*
X-54013991Y7826293D01*
X-53134105Y7461833D02*
X-52623861Y8693672D01*
X-52696753Y8517695D02*
X-52572318Y8569238D01*
X-52572318Y8569238D02*
X-52359895Y8584334D01*
X-52359895Y8584334D02*
X-52095929Y8474996D01*
X-52095929Y8474996D02*
X-51956398Y8314115D01*
X-51956398Y8314115D02*
X-51941302Y8101692D01*
X-51941302Y8101692D02*
X-52342208Y7133818D01*
X-51941302Y8101692D02*
X-51780421Y8241223D01*
X-51780421Y8241223D02*
X-51567998Y8256320D01*
X-51567998Y8256320D02*
X-51304033Y8146982D01*
X-51304033Y8146982D02*
X-51164502Y7986101D01*
X-51164502Y7986101D02*
X-51149405Y7773678D01*
X-51149405Y7773678D02*
X-51550312Y6805804D01*
X-72923031Y817006D02*
X-72624949Y-567075D01*
X-72624949Y-567075D02*
X-71978798Y692695D01*
X-70358789Y-865421D02*
X-71491869Y-716248D01*
X-70925329Y-790834D02*
X-70664277Y1192054D01*
X-70664277Y1192054D02*
X-70890417Y933646D01*
X-70890417Y933646D02*
X-71104125Y769662D01*
X-71104125Y769662D02*
X-71305403Y700101D01*
X-67898757Y-420811D02*
X-66387984Y-619708D01*
X-63890659Y108171D02*
X-63783805Y190163D01*
X-63783805Y190163D02*
X-63582527Y259724D01*
X-63582527Y259724D02*
X-63110411Y197569D01*
X-63110411Y197569D02*
X-62933995Y78283D01*
X-62933995Y78283D02*
X-62852003Y-28570D01*
X-62852003Y-28570D02*
X-62782442Y-229848D01*
X-62782442Y-229848D02*
X-62807304Y-418694D01*
X-62807304Y-418694D02*
X-62939020Y-689533D01*
X-62939020Y-689533D02*
X-64221273Y-1673440D01*
X-64221273Y-1673440D02*
X-62993770Y-1835044D01*
X-61120115Y-736877D02*
X-61294150Y-2058803D01*
X-61492783Y80664D02*
X-62151366Y-1273529D01*
X-62151366Y-1273529D02*
X-60923862Y-1435133D01*
X-60081458Y-873619D02*
X-60342511Y-2856508D01*
X-60093889Y-968042D02*
X-59892612Y-898481D01*
X-59892612Y-898481D02*
X-59514918Y-948205D01*
X-59514918Y-948205D02*
X-59338503Y-1067490D01*
X-59338503Y-1067490D02*
X-59256511Y-1174345D01*
X-59256511Y-1174345D02*
X-59186949Y-1375623D01*
X-59186949Y-1375623D02*
X-59261536Y-1942162D01*
X-59261536Y-1942162D02*
X-59380821Y-2118578D01*
X-59380821Y-2118578D02*
X-59487676Y-2200570D01*
X-59487676Y-2200570D02*
X-59688953Y-2270131D01*
X-59688953Y-2270131D02*
X-60066647Y-2220407D01*
X-60066647Y-2220407D02*
X-60243062Y-2101122D01*
X-57139523Y-2605770D02*
X-55926832Y-1420586D01*
X-56965488Y-1283844D02*
X-56100866Y-2742512D01*
X-52810861Y-1830811D02*
X-52984896Y-3152737D01*
X-53183529Y-1013269D02*
X-53842112Y-2367463D01*
X-53842112Y-2367463D02*
X-52614609Y-2529067D01*
X-51307494Y-1356314D02*
X-51118647Y-1381176D01*
X-51118647Y-1381176D02*
X-50942232Y-1500461D01*
X-50942232Y-1500461D02*
X-50860239Y-1607316D01*
X-50860239Y-1607316D02*
X-50790678Y-1808593D01*
X-50790678Y-1808593D02*
X-50745979Y-2198718D01*
X-50745979Y-2198718D02*
X-50808134Y-2670834D01*
X-50808134Y-2670834D02*
X-50952282Y-3036096D01*
X-50952282Y-3036096D02*
X-51071567Y-3212512D01*
X-51071567Y-3212512D02*
X-51178422Y-3294504D01*
X-51178422Y-3294504D02*
X-51379700Y-3364065D01*
X-51379700Y-3364065D02*
X-51568546Y-3339203D01*
X-51568546Y-3339203D02*
X-51744962Y-3219918D01*
X-51744962Y-3219918D02*
X-51826954Y-3113063D01*
X-51826954Y-3113063D02*
X-51896515Y-2911786D01*
X-51896515Y-2911786D02*
X-51941214Y-2521661D01*
X-51941214Y-2521661D02*
X-51879059Y-2049545D01*
X-51879059Y-2049545D02*
X-51734911Y-1684283D01*
X-51734911Y-1684283D02*
X-51615626Y-1507867D01*
X-51615626Y-1507867D02*
X-51508772Y-1425875D01*
X-51508772Y-1425875D02*
X-51307494Y-1356314D01*
X-50167008Y-2178881D02*
X-49411621Y-2278329D01*
X-49796721Y-1555211D02*
X-50020480Y-3254830D01*
X-50020480Y-3254830D02*
X-49950919Y-3456108D01*
X-49950919Y-3456108D02*
X-49774503Y-3575394D01*
X-49774503Y-3575394D02*
X-49585656Y-3600256D01*
X-72903042Y-15371956D02*
X-72701764Y-15441517D01*
X-72701764Y-15441517D02*
X-72324071Y-15391793D01*
X-72324071Y-15391793D02*
X-72147655Y-15272507D01*
X-72147655Y-15272507D02*
X-72078094Y-15071230D01*
X-72078094Y-15071230D02*
X-72090525Y-14976806D01*
X-72090525Y-14976806D02*
X-72209811Y-14800391D01*
X-72209811Y-14800391D02*
X-72411088Y-14730829D01*
X-72411088Y-14730829D02*
X-72694358Y-14768123D01*
X-72694358Y-14768123D02*
X-72895636Y-14698561D01*
X-72895636Y-14698561D02*
X-73014921Y-14522146D01*
X-73014921Y-14522146D02*
X-73027353Y-14427723D01*
X-73027353Y-14427723D02*
X-72957791Y-14226445D01*
X-72957791Y-14226445D02*
X-72781376Y-14107159D01*
X-72781376Y-14107159D02*
X-72498106Y-14069866D01*
X-72498106Y-14069866D02*
X-72296828Y-14139427D01*
X-71553872Y-13945555D02*
X-70907721Y-15205327D01*
X-70609639Y-13821245D02*
X-70907721Y-15205327D01*
X-70907721Y-15205327D02*
X-71034412Y-15702305D01*
X-71034412Y-15702305D02*
X-71116404Y-15809160D01*
X-71116404Y-15809160D02*
X-71292820Y-15928445D01*
X-69854252Y-13721796D02*
X-69680217Y-15043723D01*
X-69829390Y-13910643D02*
X-69747398Y-13803788D01*
X-69747398Y-13803788D02*
X-69570982Y-13684503D01*
X-69570982Y-13684503D02*
X-69287712Y-13647210D01*
X-69287712Y-13647210D02*
X-69086434Y-13716771D01*
X-69086434Y-13716771D02*
X-68967149Y-13893187D01*
X-68967149Y-13893187D02*
X-68830407Y-14931843D01*
X-67036364Y-14695653D02*
X-67173106Y-13656996D01*
X-67173106Y-13656996D02*
X-67292391Y-13480581D01*
X-67292391Y-13480581D02*
X-67493669Y-13411020D01*
X-67493669Y-13411020D02*
X-67871362Y-13460744D01*
X-67871362Y-13460744D02*
X-68047778Y-13580029D01*
X-67048795Y-14601230D02*
X-67225211Y-14720515D01*
X-67225211Y-14720515D02*
X-67697327Y-14782670D01*
X-67697327Y-14782670D02*
X-67898605Y-14713109D01*
X-67898605Y-14713109D02*
X-68017890Y-14536694D01*
X-68017890Y-14536694D02*
X-68042752Y-14347847D01*
X-68042752Y-14347847D02*
X-67973191Y-14146569D01*
X-67973191Y-14146569D02*
X-67796776Y-14027284D01*
X-67796776Y-14027284D02*
X-67324659Y-13965128D01*
X-67324659Y-13965128D02*
X-67148243Y-13845843D01*
X-66266165Y-13249416D02*
X-66005113Y-15232305D01*
X-66253734Y-13343839D02*
X-66077319Y-13224554D01*
X-66077319Y-13224554D02*
X-65699626Y-13174829D01*
X-65699626Y-13174829D02*
X-65498348Y-13244390D01*
X-65498348Y-13244390D02*
X-65391493Y-13326383D01*
X-65391493Y-13326383D02*
X-65272208Y-13502798D01*
X-65272208Y-13502798D02*
X-65197622Y-14069338D01*
X-65197622Y-14069338D02*
X-65267183Y-14270616D01*
X-65267183Y-14270616D02*
X-65349175Y-14377470D01*
X-65349175Y-14377470D02*
X-65525591Y-14496756D01*
X-65525591Y-14496756D02*
X-65903284Y-14546480D01*
X-65903284Y-14546480D02*
X-66104562Y-14476919D01*
X-64404942Y-14253160D02*
X-64203664Y-14322721D01*
X-64203664Y-14322721D02*
X-63825971Y-14272997D01*
X-63825971Y-14272997D02*
X-63649555Y-14153711D01*
X-63649555Y-14153711D02*
X-63579994Y-13952433D01*
X-63579994Y-13952433D02*
X-63592425Y-13858010D01*
X-63592425Y-13858010D02*
X-63711710Y-13681595D01*
X-63711710Y-13681595D02*
X-63912988Y-13612033D01*
X-63912988Y-13612033D02*
X-64196258Y-13649327D01*
X-64196258Y-13649327D02*
X-64397536Y-13579765D01*
X-64397536Y-13579765D02*
X-64516821Y-13403350D01*
X-64516821Y-13403350D02*
X-64529252Y-13308926D01*
X-64529252Y-13308926D02*
X-64459691Y-13107649D01*
X-64459691Y-13107649D02*
X-64283276Y-12988363D01*
X-64283276Y-12988363D02*
X-64000006Y-12951070D01*
X-64000006Y-12951070D02*
X-63798728Y-13020631D01*
X-62409620Y-14086531D02*
X-62610898Y-14016969D01*
X-62610898Y-14016969D02*
X-62717753Y-13934977D01*
X-62717753Y-13934977D02*
X-62837038Y-13758561D01*
X-62837038Y-13758561D02*
X-62911624Y-13192022D01*
X-62911624Y-13192022D02*
X-62842063Y-12990744D01*
X-62842063Y-12990744D02*
X-62760071Y-12883889D01*
X-62760071Y-12883889D02*
X-62583655Y-12764604D01*
X-62583655Y-12764604D02*
X-62300385Y-12727311D01*
X-62300385Y-12727311D02*
X-62099108Y-12796872D01*
X-62099108Y-12796872D02*
X-61992253Y-12878864D01*
X-61992253Y-12878864D02*
X-61872968Y-13055280D01*
X-61872968Y-13055280D02*
X-61798381Y-13621820D01*
X-61798381Y-13621820D02*
X-61867943Y-13823097D01*
X-61867943Y-13823097D02*
X-61949935Y-13929952D01*
X-61949935Y-13929952D02*
X-62126350Y-14049237D01*
X-62126350Y-14049237D02*
X-62409620Y-14086531D01*
X-60898847Y-13887633D02*
X-61072882Y-12565707D01*
X-61048020Y-12754554D02*
X-60966028Y-12647699D01*
X-60966028Y-12647699D02*
X-60789612Y-12528414D01*
X-60789612Y-12528414D02*
X-60506342Y-12491121D01*
X-60506342Y-12491121D02*
X-60305064Y-12560682D01*
X-60305064Y-12560682D02*
X-60185779Y-12737097D01*
X-60185779Y-12737097D02*
X-60049037Y-13775754D01*
X-60185779Y-12737097D02*
X-60116218Y-12535820D01*
X-60116218Y-12535820D02*
X-59939802Y-12416534D01*
X-59939802Y-12416534D02*
X-59656532Y-12379241D01*
X-59656532Y-12379241D02*
X-59455255Y-12448802D01*
X-59455255Y-12448802D02*
X-59335969Y-12625218D01*
X-59335969Y-12625218D02*
X-59199227Y-13663874D01*
X-57971724Y-13502270D02*
X-58173002Y-13432709D01*
X-58173002Y-13432709D02*
X-58279856Y-13350717D01*
X-58279856Y-13350717D02*
X-58399141Y-13174301D01*
X-58399141Y-13174301D02*
X-58473728Y-12607761D01*
X-58473728Y-12607761D02*
X-58404167Y-12406484D01*
X-58404167Y-12406484D02*
X-58322174Y-12299629D01*
X-58322174Y-12299629D02*
X-58145759Y-12180344D01*
X-58145759Y-12180344D02*
X-57862489Y-12143051D01*
X-57862489Y-12143051D02*
X-57661211Y-12212612D01*
X-57661211Y-12212612D02*
X-57554357Y-12294604D01*
X-57554357Y-12294604D02*
X-57435071Y-12471020D01*
X-57435071Y-12471020D02*
X-57360485Y-13037560D01*
X-57360485Y-13037560D02*
X-57430046Y-13238837D01*
X-57430046Y-13238837D02*
X-57512038Y-13345692D01*
X-57512038Y-13345692D02*
X-57688454Y-13464977D01*
X-57688454Y-13464977D02*
X-57971724Y-13502270D01*
X-56460951Y-13303373D02*
X-56634985Y-11981447D01*
X-56585261Y-12359140D02*
X-56515700Y-12157862D01*
X-56515700Y-12157862D02*
X-56433708Y-12051008D01*
X-56433708Y-12051008D02*
X-56257292Y-11931723D01*
X-56257292Y-11931723D02*
X-56068446Y-11906860D01*
X-55407483Y-11819843D02*
X-55146430Y-13802733D01*
X-55395052Y-11914266D02*
X-55218636Y-11794981D01*
X-55218636Y-11794981D02*
X-54840943Y-11745257D01*
X-54840943Y-11745257D02*
X-54639665Y-11814818D01*
X-54639665Y-11814818D02*
X-54532811Y-11896810D01*
X-54532811Y-11896810D02*
X-54413525Y-12073226D01*
X-54413525Y-12073226D02*
X-54338939Y-12639766D01*
X-54338939Y-12639766D02*
X-54408500Y-12841043D01*
X-54408500Y-12841043D02*
X-54490492Y-12947898D01*
X-54490492Y-12947898D02*
X-54666908Y-13067183D01*
X-54666908Y-13067183D02*
X-55044601Y-13116907D01*
X-55044601Y-13116907D02*
X-55245879Y-13047346D01*
X-53439404Y-12905579D02*
X-53700457Y-10922689D01*
X-52589594Y-12793700D02*
X-52726336Y-11755043D01*
X-52726336Y-11755043D02*
X-52845622Y-11578627D01*
X-52845622Y-11578627D02*
X-53046899Y-11509066D01*
X-53046899Y-11509066D02*
X-53330169Y-11546359D01*
X-53330169Y-11546359D02*
X-53506585Y-11665645D01*
X-53506585Y-11665645D02*
X-53588577Y-11772499D01*
X-52008243Y-11372325D02*
X-51362091Y-12632096D01*
X-51064009Y-11248014D02*
X-51362091Y-12632096D01*
X-51362091Y-12632096D02*
X-51488782Y-13129074D01*
X-51488782Y-13129074D02*
X-51570775Y-13235929D01*
X-51570775Y-13235929D02*
X-51747190Y-13355214D01*
X-50159450Y-12281645D02*
X-50052595Y-12363637D01*
X-50052595Y-12363637D02*
X-50134588Y-12470492D01*
X-50134588Y-12470492D02*
X-50241442Y-12388500D01*
X-50241442Y-12388500D02*
X-50159450Y-12281645D01*
X-50159450Y-12281645D02*
X-50134588Y-12470492D01*
X-48352975Y-12139878D02*
X-48529391Y-12259164D01*
X-48529391Y-12259164D02*
X-48907084Y-12308888D01*
X-48907084Y-12308888D02*
X-49108362Y-12239327D01*
X-49108362Y-12239327D02*
X-49215216Y-12157334D01*
X-49215216Y-12157334D02*
X-49334502Y-11980919D01*
X-49334502Y-11980919D02*
X-49409088Y-11414379D01*
X-49409088Y-11414379D02*
X-49339527Y-11213101D01*
X-49339527Y-11213101D02*
X-49257535Y-11106247D01*
X-49257535Y-11106247D02*
X-49081119Y-10986961D01*
X-49081119Y-10986961D02*
X-48703426Y-10937237D01*
X-48703426Y-10937237D02*
X-48502148Y-11006798D01*
X-47207464Y-12085129D02*
X-47408742Y-12015567D01*
X-47408742Y-12015567D02*
X-47515596Y-11933575D01*
X-47515596Y-11933575D02*
X-47634882Y-11757160D01*
X-47634882Y-11757160D02*
X-47709468Y-11190620D01*
X-47709468Y-11190620D02*
X-47639907Y-10989342D01*
X-47639907Y-10989342D02*
X-47557915Y-10882488D01*
X-47557915Y-10882488D02*
X-47381499Y-10763202D01*
X-47381499Y-10763202D02*
X-47098229Y-10725909D01*
X-47098229Y-10725909D02*
X-46896952Y-10795470D01*
X-46896952Y-10795470D02*
X-46790097Y-10877462D01*
X-46790097Y-10877462D02*
X-46670812Y-11053878D01*
X-46670812Y-11053878D02*
X-46596225Y-11620418D01*
X-46596225Y-11620418D02*
X-46665786Y-11821696D01*
X-46665786Y-11821696D02*
X-46747779Y-11928550D01*
X-46747779Y-11928550D02*
X-46924194Y-12047835D01*
X-46924194Y-12047835D02*
X-47207464Y-12085129D01*
X-45696691Y-11886232D02*
X-45870726Y-10564305D01*
X-45845864Y-10753152D02*
X-45763871Y-10646297D01*
X-45763871Y-10646297D02*
X-45587456Y-10527012D01*
X-45587456Y-10527012D02*
X-45304186Y-10489719D01*
X-45304186Y-10489719D02*
X-45102908Y-10559280D01*
X-45102908Y-10559280D02*
X-44983623Y-10735695D01*
X-44983623Y-10735695D02*
X-44846881Y-11774352D01*
X-44983623Y-10735695D02*
X-44914062Y-10534418D01*
X-44914062Y-10534418D02*
X-44737646Y-10415132D01*
X-44737646Y-10415132D02*
X-44454376Y-10377839D01*
X-44454376Y-10377839D02*
X-44253098Y-10447400D01*
X-44253098Y-10447400D02*
X-44133813Y-10623816D01*
X-44133813Y-10623816D02*
X-43997071Y-11662472D01*
X52780828Y-9329774D02*
X52780828Y-10186917D01*
X52780828Y-9758346D02*
X51280828Y-9758346D01*
X51280828Y-9758346D02*
X51495114Y-9901203D01*
X51495114Y-9901203D02*
X51637971Y-10044060D01*
X51637971Y-10044060D02*
X51709400Y-10186917D01*
X51423685Y-7615489D02*
X51352257Y-7544061D01*
X51352257Y-7544061D02*
X51280828Y-7401204D01*
X51280828Y-7401204D02*
X51280828Y-7044061D01*
X51280828Y-7044061D02*
X51352257Y-6901204D01*
X51352257Y-6901204D02*
X51423685Y-6829775D01*
X51423685Y-6829775D02*
X51566542Y-6758346D01*
X51566542Y-6758346D02*
X51709400Y-6758346D01*
X51709400Y-6758346D02*
X51923685Y-6829775D01*
X51923685Y-6829775D02*
X52780828Y-7686918D01*
X52780828Y-7686918D02*
X52780828Y-6758346D01*
X51280828Y-4686918D02*
X51280828Y-4544061D01*
X51280828Y-4544061D02*
X51352257Y-4401204D01*
X51352257Y-4401204D02*
X51423685Y-4329776D01*
X51423685Y-4329776D02*
X51566542Y-4258347D01*
X51566542Y-4258347D02*
X51852257Y-4186918D01*
X51852257Y-4186918D02*
X52209400Y-4186918D01*
X52209400Y-4186918D02*
X52495114Y-4258347D01*
X52495114Y-4258347D02*
X52637971Y-4329776D01*
X52637971Y-4329776D02*
X52709400Y-4401204D01*
X52709400Y-4401204D02*
X52780828Y-4544061D01*
X52780828Y-4544061D02*
X52780828Y-4686918D01*
X52780828Y-4686918D02*
X52709400Y-4829776D01*
X52709400Y-4829776D02*
X52637971Y-4901204D01*
X52637971Y-4901204D02*
X52495114Y-4972633D01*
X52495114Y-4972633D02*
X52209400Y-5044061D01*
X52209400Y-5044061D02*
X51852257Y-5044061D01*
X51852257Y-5044061D02*
X51566542Y-4972633D01*
X51566542Y-4972633D02*
X51423685Y-4901204D01*
X51423685Y-4901204D02*
X51352257Y-4829776D01*
X51352257Y-4829776D02*
X51280828Y-4686918D01*
X48246192Y-27108626D02*
X48283166Y-26970637D01*
X48283166Y-26970637D02*
X48389135Y-26851135D01*
X48389135Y-26851135D02*
X48476617Y-26800627D01*
X48476617Y-26800627D02*
X48633093Y-26768606D01*
X48633093Y-26768606D02*
X48927559Y-26773560D01*
X48927559Y-26773560D02*
X49272533Y-26865995D01*
X49272533Y-26865995D02*
X49530025Y-27008938D01*
X49530025Y-27008938D02*
X49649527Y-27114907D01*
X49649527Y-27114907D02*
X49700035Y-27202389D01*
X49700035Y-27202389D02*
X49732055Y-27358866D01*
X49732055Y-27358866D02*
X49695081Y-27496855D01*
X49695081Y-27496855D02*
X49589112Y-27616357D01*
X49589112Y-27616357D02*
X49501630Y-27666865D01*
X49501630Y-27666865D02*
X49345154Y-27698885D01*
X49345154Y-27698885D02*
X49050688Y-27693932D01*
X49050688Y-27693932D02*
X48705714Y-27601497D01*
X48705714Y-27601497D02*
X48448223Y-27458554D01*
X48448223Y-27458554D02*
X48328720Y-27352585D01*
X48328720Y-27352585D02*
X48278213Y-27265103D01*
X48278213Y-27265103D02*
X48246192Y-27108626D01*
X50490025Y-24530083D02*
X50268180Y-25358020D01*
X50379103Y-24944052D02*
X48930214Y-24555823D01*
X48930214Y-24555823D02*
X49100224Y-24749274D01*
X49100224Y-24749274D02*
X49201239Y-24924237D01*
X49201239Y-24924237D02*
X49233260Y-25080714D01*
X49622815Y-22522957D02*
X49572308Y-22435475D01*
X49572308Y-22435475D02*
X49540287Y-22278998D01*
X49540287Y-22278998D02*
X49632723Y-21934025D01*
X49632723Y-21934025D02*
X49738691Y-21814523D01*
X49738691Y-21814523D02*
X49826173Y-21764015D01*
X49826173Y-21764015D02*
X49982650Y-21731994D01*
X49982650Y-21731994D02*
X50120639Y-21768969D01*
X50120639Y-21768969D02*
X50309136Y-21893424D01*
X50309136Y-21893424D02*
X50915228Y-22943206D01*
X50915228Y-22943206D02*
X51155560Y-22046275D01*
%LPC*%
D11*
%TO.C,*%
X56000000Y-7500000D03*
%TD*%
%TO.C,*%
X55392585Y-16767360D03*
%TD*%
%TO.C,*%
X53580734Y-25876152D03*
%TD*%
D12*
%TO.C,*%
X49000000Y-7500000D03*
%TD*%
%TO.C,*%
X48844099Y-3035586D03*
%TD*%
%TO.C,*%
X48844099Y-11964414D03*
%TD*%
%TO.C,*%
X46819253Y-24064419D03*
%TD*%
%TO.C,*%
X47824140Y-19711776D03*
%TD*%
%TO.C,*%
X45513189Y-28336362D03*
%TD*%
%LPD*%
M02*
