M48
; DRILL file {KiCad 8.0.0} date 2024-10-30T22:06:19-0400
; FORMAT={-:-/ absolute / inch / decimal}
; #@! TF.CreationDate,2024-10-30T22:06:19-04:00
; #@! TF.GenerationSoftware,Kicad,Pcbnew,8.0.0
; #@! TF.FileFunction,Plated,1,4,PTH
FMAT,2
INCH
; #@! TA.AperFunction,Plated,PTH,ViaDrill
T1C0.0157
; #@! TA.AperFunction,Plated,PTH,ComponentDrill
T2C0.0787
; #@! TA.AperFunction,Plated,PTH,ComponentDrill
T3C0.0866
%
G90
G05
T1
X-2.9764Y-0.0315
X-2.9764Y-0.5591
X-2.9685Y-0.2953
X-2.9685Y-0.2953
X-2.9634Y0.0674
X-2.9634Y-0.658
X-2.8875Y0.3202
X-2.8875Y0.3202
X-2.8875Y-0.9107
X-2.8875Y-0.9107
X-2.8268Y0.577
X-2.8268Y-1.1676
X-2.7886Y0.6692
X-2.7886Y-1.2597
X-2.7835Y-0.2244
X-2.7835Y-0.3661
X-2.7271Y0.2038
X-2.7271Y-0.7944
X-2.6904Y0.3407
X-2.6904Y-0.9313
X-2.6499Y0.8937
X-2.6499Y0.8937
X-2.6499Y-1.4843
X-2.6499Y-1.4843
X-2.5251Y0.7398
X-2.5251Y-1.3304
X-2.5248Y1.1261
X-2.5248Y-1.7166
X-2.4641Y1.2052
X-2.4641Y-1.7958
X-2.4542Y0.8626
X-2.4542Y-1.4531
X-2.272Y1.3862
X-2.272Y1.3862
X-2.272Y-1.9767
X-2.272Y-1.9767
X-2.1913Y1.2052
X-2.1913Y-1.7958
X-2.0911Y1.5783
X-2.0911Y1.3055
X-2.0911Y-1.896
X-2.0911Y-2.1688
X-2.0119Y1.639
X-2.0119Y-2.2296
X-1.7795Y1.7641
X-1.7795Y1.7641
X-1.7795Y-2.3546
X-1.7795Y-2.3546
X-1.7484Y1.5684
X-1.7484Y-2.159
X-1.6256Y1.6393
X-1.6256Y-2.2298
X-1.555Y1.9028
X-1.555Y-2.4934
X-1.4628Y1.941
X-1.4628Y-2.5315
X-1.2266Y1.8046
X-1.2266Y-2.3951
X-1.206Y2.0017
X-1.206Y2.0017
X-1.206Y-2.5922
X-1.206Y-2.5922
X-1.0897Y1.8413
X-1.0897Y-2.4318
X-0.9533Y2.0775
X-0.9533Y-2.6681
X-0.8543Y2.0906
X-0.8543Y-2.6811
X-0.6614Y1.8976
X-0.6614Y-2.4882
X-0.5906Y2.0827
X-0.5906Y2.0827
X-0.5906Y-2.6732
X-0.5906Y-2.6732
X-0.5197Y1.8976
X-0.5197Y-2.4882
X-0.3268Y2.0906
X-0.3268Y-2.6811
X-0.2278Y2.0775
X-0.2278Y-2.6681
X-0.0914Y1.8413
X-0.0914Y-2.4318
X0.0249Y2.0017
X0.0249Y2.0017
X0.0249Y-2.5922
X0.0249Y-2.5922
X0.0455Y1.8046
X0.0455Y-2.3951
X0.2817Y1.941
X0.2817Y-2.5315
X0.3739Y1.9028
X0.3739Y-2.4934
X0.4445Y1.6393
X0.4445Y-2.2298
X0.5673Y1.5684
X0.5673Y-2.159
X0.5984Y1.7641
X0.5984Y1.7641
X0.5984Y-2.3546
X0.5984Y-2.3546
X0.8308Y1.639
X0.8308Y-2.2296
X0.9098Y-1.896
X0.9098Y-2.1689
X0.91Y1.5783
X0.91Y1.3055
X1.0102Y1.2052
X1.0102Y-1.7958
X1.0908Y-1.9768
X1.0909Y1.3862
X1.0909Y1.3862
X1.0909Y-1.9767
X1.2731Y0.8626
X1.2731Y-1.4531
X1.283Y1.2052
X1.283Y-1.7958
X1.3437Y1.1261
X1.3437Y-1.7166
X1.344Y0.7398
X1.344Y-1.3304
X1.4688Y0.8937
X1.4688Y0.8937
X1.4688Y-1.4843
X1.4688Y-1.4843
X1.5093Y0.3407
X1.5093Y-0.9313
X1.546Y0.2038
X1.546Y-0.7944
X1.6024Y-0.2244
X1.6024Y-0.3661
X1.6075Y0.6692
X1.6075Y-1.2597
X1.6457Y0.577
X1.6457Y-1.1676
X1.7064Y0.3202
X1.7064Y0.3202
X1.7064Y-0.9107
X1.7064Y-0.9107
X1.7823Y0.0674
X1.7823Y-0.658
X1.7874Y-0.2953
X1.7874Y-0.2953
X1.7953Y-0.0315
X1.7953Y-0.5591
T2
X1.7919Y-1.1156
X1.8433Y-0.9474
X1.8828Y-0.7761
X1.923Y-0.1195
X1.923Y-0.471
X1.9291Y-0.2953
T3
X2.1095Y-1.0187
X2.1808Y-0.6601
X2.2047Y-0.2953
M30
